<svg width="49" height="58" viewBox="0 0 49 58" fill="none" xmlns="http://www.w3.org/2000/svg">
<ellipse cx="17.4609" cy="35.2743" rx="17" ry="22.2113" fill="url(#paint0_linear_2270_688)"/>
<path d="M48.3085 4.5252C48.0618 3.79394 47.5833 3.21777 46.9612 2.90293L43.0907 0.941992C40.5931 -0.321378 37.6648 0.984749 36.5628 3.85394L33.3745 12.1634L28.2248 10.1033C28.0402 10.0295 27.8391 10.0295 27.6544 10.1033L22.5069 12.1629L19.3185 3.85315C18.2166 0.984649 15.2882 -0.321279 12.7905 0.942092L8.91719 2.90323C8.29614 3.21847 7.81846 3.79484 7.57238 4.52599C7.3263 5.25695 7.34183 6.05238 7.61575 6.7648L8.68586 9.55725C8.96013 10.2706 9.46131 10.8197 10.097 11.1034C10.3981 11.2377 10.7115 11.3046 11.0239 11.3046C11.3724 11.3046 11.7197 11.2213 12.0469 11.0551L18.8609 7.60359L20.8633 12.8205L15.1638 15.101C14.9287 15.1951 14.74 15.4008 14.646 15.6657C13.3315 19.3669 12.6762 23.2002 12.6979 27.0592C12.7193 30.8538 13.3923 34.4804 14.698 37.8383C17.1684 44.191 21.7673 49.0182 27.6478 51.431C27.7421 51.4696 27.8408 51.489 27.9395 51.489C28.0381 51.489 28.1368 51.4696 28.2311 51.431C34.1126 49.0181 38.7125 44.1906 41.1831 37.8377C42.4889 34.48 43.1619 30.8534 43.1834 27.0588C43.2051 23.1999 42.5498 19.3667 41.2354 15.6656C41.1413 15.4007 40.9527 15.195 40.7175 15.1009L35.018 12.8208L37.0207 7.60349L43.8338 11.0547C44.1615 11.2211 44.509 11.3045 44.8576 11.3045C45.1699 11.3045 45.4833 11.2375 45.7838 11.1034C46.4202 10.8193 46.921 10.2694 47.1932 9.55675L48.2651 6.76599C48.5398 6.05198 48.5552 5.25625 48.3085 4.5252ZM11.3458 9.23104C11.1492 9.33081 10.9286 9.33569 10.7245 9.24469C10.5201 9.1534 10.3592 8.97809 10.2724 8.75224L9.2023 5.95969C9.11513 5.73305 9.11062 5.479 9.18964 5.24449C9.26849 5.00997 9.42054 4.82579 9.61683 4.72612L13.4892 2.76549C13.9097 2.5529 14.3487 2.45224 14.7811 2.45224C16.0182 2.45224 17.2006 3.27588 17.7308 4.65636L18.161 5.7788L11.3458 9.23104ZM39.5994 37.0245C37.3646 42.771 33.2314 47.1653 27.9396 49.4315C22.6488 47.1654 18.5164 42.7714 16.2819 37.0252C13.8908 30.8763 13.8319 23.5419 16.108 16.8339L27.9396 12.0998L33.8353 14.4584C33.8338 14.5208 33.8787 14.5301 33.9483 14.5036L39.7735 16.834C42.0495 23.5418 41.9906 30.8759 39.5994 37.0245ZM46.679 5.96009L45.6063 8.75324C45.5199 8.97928 45.3601 9.1539 45.1563 9.24479C44.9528 9.33579 44.7322 9.33091 44.5349 9.23064L37.7206 5.7789L38.1504 4.65725C38.8663 2.79329 40.7692 1.94464 42.3917 2.76529L46.2621 4.72622C46.4599 4.82639 46.6125 5.01067 46.6916 5.24509C46.7707 5.4793 46.7662 5.73305 46.679 5.96009Z" fill="#1A4139"/>
<path d="M28.2265 14.8474C28.0418 14.7735 27.8407 14.7735 27.6561 14.8474L18.1922 18.6331C17.9346 18.7362 17.7342 18.9725 17.6512 19.2711C15.9507 25.3875 16.3103 31.6779 18.6636 36.9835C20.5624 41.2659 23.6494 44.5871 27.5908 46.5878C27.7025 46.6445 27.8219 46.6728 27.9413 46.6728C28.0608 46.6728 28.1802 46.6445 28.2919 46.5878C32.2322 44.5877 35.3199 41.2667 37.2214 36.9837C39.5755 31.6764 39.9341 25.3858 38.2312 19.2707C38.1481 18.9723 37.9478 18.7362 37.6903 18.6332L28.2265 14.8474ZM35.6758 36.0782C34.0144 39.8205 31.3451 42.7529 27.9413 44.5815C24.5367 42.7526 21.8683 39.8204 20.2091 36.0786C18.1248 31.3794 17.7626 25.8123 19.1769 20.3499L27.9413 16.8439L36.7058 20.35C38.122 25.8109 37.7605 31.3781 35.6758 36.0782Z" fill="#1A4139"/>
<path d="M27.9409 30.3058C30.4188 30.3058 32.4349 27.9907 32.4349 25.1449C32.4349 22.2991 30.4189 19.9839 27.9409 19.9839C25.4642 19.9839 23.4492 22.2991 23.4492 25.1449C23.4492 27.9907 25.4642 30.3058 27.9409 30.3058ZM27.9409 21.9772C29.4623 21.9772 30.7001 23.3983 30.7001 25.1449C30.7001 26.8916 29.4623 28.3126 27.9409 28.3126C26.4207 28.3126 25.184 26.8916 25.184 25.1449C25.1839 23.3983 26.4207 21.9772 27.9409 21.9772Z" fill="#1A4139"/>
<path d="M32.3847 32.7881H23.4963C23.0173 32.7881 22.6289 33.2343 22.6289 33.7847C22.6289 34.3352 23.0172 34.7814 23.4963 34.7814H32.3847C32.8637 34.7814 33.2521 34.3352 33.2521 33.7847C33.2521 33.2343 32.8637 32.7881 32.3847 32.7881Z" fill="#1A4139"/>
<path d="M29.7707 36.8589H26.1096C25.6306 36.8589 25.2422 37.3051 25.2422 37.8555C25.2422 38.406 25.6305 38.8522 26.1096 38.8522H29.7707C30.2497 38.8522 30.6381 38.406 30.6381 37.8555C30.6381 37.3051 30.2497 36.8589 29.7707 36.8589Z" fill="#1A4139"/>
<defs>
<linearGradient id="paint0_linear_2270_688" x1="17.4609" y1="13.063" x2="17.4609" y2="57.4857" gradientUnits="userSpaceOnUse">
<stop stop-color="#495846" stop-opacity="0.16"/>
<stop offset="1" stop-color="#495846" stop-opacity="0"/>
</linearGradient>
</defs>
</svg>
