<svg width="154" height="45" viewBox="0 0 154 45" fill="none" xmlns="http://www.w3.org/2000/svg">
<path d="M152.546 39.7573C152.546 42.1189 150.593 44.0319 148.178 44.0319H5.22559C2.81133 44.0319 0.851658 42.1189 0.851658 39.7573V5.66906C0.851658 3.30856 2.81133 1.38892 5.22559 1.38892H148.177C150.593 1.38892 152.545 3.30856 152.545 5.66906L152.546 39.7573Z" fill="black"/>
<path d="M147.717 1.44089C150.348 1.44089 152.488 3.52786 152.488 6.0926V39.329C152.488 41.8937 150.348 43.9807 147.717 43.9807H5.68144C3.05093 43.9807 0.91045 41.8937 0.91045 39.329V6.0926C0.91045 3.52786 3.05093 1.44089 5.68144 1.44089H147.717ZM147.717 0.5532H5.68144C2.55807 0.5532 0 3.04731 0 6.0926V39.329C0 42.3743 2.55807 44.8684 5.68144 44.8684H147.717C150.841 44.8684 153.399 42.3743 153.399 39.329V6.0926C153.399 3.04731 150.841 0.5532 147.717 0.5532Z" fill="#A6A6A6"/>
<path d="M34.236 22.4718C34.203 18.9011 37.2346 17.1639 37.3733 17.083C35.6563 14.6424 32.9951 14.3089 32.06 14.2823C29.8249 14.053 27.6569 15.5863 26.5183 15.5863C25.357 15.5863 23.6037 14.3045 21.7141 14.3421C19.2824 14.3787 17.0076 15.7514 15.7599 17.8829C13.1851 22.2291 15.1054 28.6161 17.5723 32.1292C18.8063 33.8497 20.2483 35.7708 22.1356 35.7032C23.9821 35.629 24.6718 34.5554 26.9001 34.5554C29.1079 34.5554 29.7556 35.7032 31.6805 35.66C33.6621 35.629 34.9098 33.9317 36.1006 32.1956C37.5267 30.2236 38.0993 28.2815 38.1221 28.1818C38.0755 28.1663 34.2735 26.7515 34.236 22.4718Z" fill="white"/>
<path d="M30.5998 11.9713C31.593 10.7604 32.2725 9.11295 32.0838 7.44116C30.6464 7.5032 28.8488 8.41056 27.8137 9.59488C26.8978 10.6385 26.0797 12.3491 26.291 13.9577C27.9057 14.0751 29.5635 13.1634 30.5998 11.9713Z" fill="white"/>
<path d="M60.9557 35.4556H58.3752L56.9617 31.1249H52.0483L50.7018 35.4556H48.1895L53.0574 20.7119H56.064L60.9557 35.4556ZM56.5355 29.308L55.2572 25.4581C55.122 25.0648 54.8686 24.1386 54.4948 22.6806H54.4493C54.3005 23.3077 54.0607 24.2339 53.7312 25.4581L52.4756 29.308H56.5355Z" fill="white"/>
<path d="M73.4734 30.0091C73.4734 31.8171 72.9723 33.2463 71.9701 34.2955C71.0724 35.2294 69.9577 35.6958 68.6271 35.6958C67.1908 35.6958 66.1591 35.1929 65.5307 34.1869H65.4853V39.7872H63.0627V28.324C63.0627 27.1873 63.032 26.0207 62.9729 24.8242H65.1035L65.2387 26.5093H65.2842C66.0921 25.2397 67.3181 24.606 68.9635 24.606C70.2497 24.606 71.3235 25.1012 72.1826 26.0927C73.0439 27.0854 73.4734 28.3905 73.4734 30.0091ZM71.0054 30.0955C71.0054 29.0607 70.7667 28.2077 70.2872 27.5363C69.7634 26.8361 69.06 26.486 68.1783 26.486C67.5806 26.486 67.0374 26.681 66.5522 27.0655C66.0659 27.4532 65.7478 27.9595 65.5989 28.5866C65.5239 28.8791 65.4864 29.1184 65.4864 29.3067V31.0793C65.4864 31.8526 65.7296 32.5051 66.2159 33.038C66.7022 33.5709 67.334 33.8368 68.1112 33.8368C69.0237 33.8368 69.7339 33.4934 70.2418 32.8087C70.7508 32.1229 71.0054 31.2189 71.0054 30.0955Z" fill="white"/>
<path d="M86.0169 30.0093C86.0169 31.8174 85.5158 33.2466 84.5125 34.2957C83.616 35.2297 82.5013 35.6961 81.1707 35.6961C79.7344 35.6961 78.7027 35.1931 78.0754 34.1871H78.03V39.7875H75.6074V28.3242C75.6074 27.1876 75.5767 26.021 75.5176 24.8245H77.6482L77.7834 26.5095H77.8288C78.6356 25.2399 79.8617 24.6062 81.5082 24.6062C82.7933 24.6062 83.8671 25.1014 84.7284 26.093C85.5863 27.0856 86.0169 28.3907 86.0169 30.0093ZM83.5489 30.0957C83.5489 29.061 83.3092 28.2079 82.8296 27.5365C82.3058 26.8364 81.6047 26.4863 80.7218 26.4863C80.123 26.4863 79.581 26.6813 79.0947 27.0657C78.6083 27.4535 78.2913 27.9598 78.1425 28.5868C78.0686 28.8793 78.03 29.1186 78.03 29.3069V31.0795C78.03 31.8528 78.2731 32.5054 78.7572 33.0383C79.2435 33.5701 79.8753 33.8371 80.6548 33.8371C81.5672 33.8371 82.2774 33.4936 82.7853 32.8089C83.2944 32.1232 83.5489 31.2191 83.5489 30.0957Z" fill="white"/>
<path d="M100.036 31.321C100.036 32.5751 99.589 33.5954 98.6925 34.3831C97.7073 35.244 96.3358 35.6738 94.5734 35.6738C92.9463 35.6738 91.6418 35.368 90.6544 34.7554L91.2157 32.7867C92.2793 33.4137 93.4462 33.7284 94.7177 33.7284C95.6302 33.7284 96.3404 33.5267 96.8506 33.1257C97.3585 32.7246 97.6119 32.1862 97.6119 31.5148C97.6119 30.9166 97.4028 30.4125 96.9835 30.0037C96.5665 29.5949 95.8699 29.2149 94.8973 28.8637C92.2497 27.9009 90.9271 26.4906 90.9271 24.636C90.9271 23.424 91.3907 22.4302 92.319 21.6569C93.244 20.8825 94.478 20.4958 96.0211 20.4958C97.3971 20.4958 98.5402 20.7296 99.4526 21.196L98.847 23.1215C97.9948 22.6695 97.0312 22.4435 95.9529 22.4435C95.1007 22.4435 94.4348 22.6485 93.9576 23.0562C93.5542 23.4207 93.3519 23.8649 93.3519 24.3912C93.3519 24.9739 93.5826 25.4558 94.0462 25.8347C94.4496 26.1848 95.1825 26.5637 96.246 26.9725C97.5471 27.4833 98.5027 28.0804 99.1174 28.7651C99.7299 29.4475 100.036 30.3017 100.036 31.321Z" fill="white"/>
<path d="M108.045 26.5971H105.375V31.7587C105.375 33.0715 105.845 33.7274 106.788 33.7274C107.221 33.7274 107.58 33.6908 107.864 33.6177L107.931 35.4114C107.454 35.5853 106.826 35.6728 106.047 35.6728C105.09 35.6728 104.343 35.3881 103.803 34.8198C103.266 34.2503 102.995 33.2953 102.995 31.9537V26.5949H101.404V24.8223H102.995V22.8757L105.375 22.1755V24.8223H108.045V26.5971Z" fill="white"/>
<path d="M120.094 30.0524C120.094 31.6865 119.614 33.0282 118.658 34.0773C117.654 35.1575 116.323 35.696 114.662 35.696C113.063 35.696 111.789 35.1786 110.839 34.1438C109.889 33.1091 109.414 31.8029 109.414 30.2286C109.414 28.5811 109.903 27.2317 110.883 26.1826C111.861 25.1323 113.182 24.6072 114.842 24.6072C116.442 24.6072 117.729 25.1246 118.701 26.1604C119.63 27.1653 120.094 28.4626 120.094 30.0524ZM117.58 30.1289C117.58 29.1484 117.366 28.3075 116.93 27.6062C116.423 26.7576 115.696 26.3344 114.756 26.3344C113.782 26.3344 113.042 26.7587 112.534 27.6062C112.099 28.3086 111.884 29.1628 111.884 30.1732C111.884 31.1536 112.099 31.9945 112.534 32.6947C113.058 33.5433 113.79 33.9665 114.734 33.9665C115.659 33.9665 116.385 33.5345 116.909 32.6725C117.355 31.958 117.58 31.1082 117.58 30.1289Z" fill="white"/>
<path d="M127.971 26.9017C127.731 26.8585 127.475 26.8364 127.207 26.8364C126.355 26.8364 125.696 27.1499 125.232 27.7781C124.829 28.332 124.626 29.0322 124.626 29.8775V35.4557H122.205L122.228 28.1725C122.228 26.9472 122.197 25.8315 122.137 24.8256H124.247L124.336 26.8596H124.403C124.658 26.1606 125.062 25.5978 125.614 25.1757C126.154 24.7956 126.736 24.6062 127.365 24.6062C127.589 24.6062 127.791 24.6217 127.971 24.6494V26.9017Z" fill="white"/>
<path d="M138.806 29.637C138.806 30.0602 138.777 30.417 138.717 30.7083H131.449C131.478 31.7586 131.829 32.5618 132.504 33.1158C133.116 33.611 133.908 33.8591 134.881 33.8591C135.957 33.8591 136.939 33.6918 137.822 33.3562L138.201 34.9958C137.169 35.4345 135.951 35.6528 134.546 35.6528C132.855 35.6528 131.528 35.1675 130.562 34.1981C129.598 33.2288 129.115 31.927 129.115 30.294C129.115 28.6909 129.564 27.3559 130.463 26.2912C131.404 25.1545 132.675 24.5862 134.275 24.5862C135.847 24.5862 137.036 25.1545 137.844 26.2912C138.484 27.1941 138.806 28.3109 138.806 29.637ZM136.495 29.0243C136.511 28.3242 136.353 27.7193 136.025 27.2085C135.606 26.5516 134.961 26.2236 134.095 26.2236C133.303 26.2236 132.658 26.5438 132.166 27.1864C131.763 27.6971 131.523 28.3098 131.449 29.0232H136.495V29.0243Z" fill="white"/>
<path d="M55.7372 11.6419C55.7372 12.9459 55.336 13.9275 54.535 14.5867C53.793 15.1949 52.7385 15.4996 51.3727 15.4996C50.6954 15.4996 50.1159 15.4708 49.6307 15.4131V8.28837C50.2637 8.18866 50.9454 8.1377 51.6817 8.1377C52.9828 8.1377 53.9634 8.41356 54.6247 8.96528C55.3656 9.58902 55.7372 10.4809 55.7372 11.6419ZM54.4816 11.674C54.4816 10.8287 54.252 10.1806 53.793 9.72861C53.3339 9.2777 52.6635 9.0517 51.7806 9.0517C51.4056 9.0517 51.0863 9.07607 50.8216 9.12703V14.5435C50.9681 14.5656 51.2363 14.5756 51.6261 14.5756C52.5374 14.5756 53.2407 14.3285 53.7362 13.8344C54.2316 13.3403 54.4816 12.6202 54.4816 11.674Z" fill="white"/>
<path d="M62.3965 12.7809C62.3965 13.5841 62.1613 14.2422 61.6909 14.7584C61.1977 15.2891 60.5444 15.5539 59.7285 15.5539C58.9422 15.5539 58.3161 15.3002 57.8491 14.7906C57.3832 14.282 57.1503 13.6406 57.1503 12.8673C57.1503 12.0585 57.39 11.3949 57.8718 10.8797C58.3536 10.3646 59.0013 10.1064 59.8171 10.1064C60.6034 10.1064 61.2352 10.3601 61.7136 10.8687C62.1681 11.3628 62.3965 12.0009 62.3965 12.7809ZM61.1614 12.8185C61.1614 12.3366 61.0546 11.9234 60.8421 11.5788C60.5921 11.1623 60.2364 10.954 59.774 10.954C59.2956 10.954 58.932 11.1623 58.682 11.5788C58.4684 11.9234 58.3627 12.3433 58.3627 12.8396C58.3627 13.3215 58.4695 13.7348 58.682 14.0793C58.9399 14.4959 59.299 14.7041 59.7626 14.7041C60.2171 14.7041 60.5739 14.4925 60.8307 14.0682C61.0511 13.717 61.1614 13.3005 61.1614 12.8185Z" fill="white"/>
<path d="M71.3213 10.2129L69.6452 15.4354H68.5544L67.8601 13.1676C67.684 12.6015 67.5408 12.0387 67.4295 11.4803H67.4079C67.3045 12.0542 67.1613 12.6159 66.9772 13.1676L66.2398 15.4354H65.1365L63.5604 10.2129H64.7842L65.3898 12.6957C65.5364 13.2828 65.6569 13.8423 65.7535 14.3719H65.775C65.8637 13.9354 66.0103 13.3792 66.2171 12.7067L66.9772 10.214H67.9476L68.676 12.6536C68.8521 13.2485 68.9953 13.8213 69.1055 14.373H69.1385C69.2191 13.8357 69.3407 13.2629 69.5021 12.6536L70.152 10.214H71.3213V10.2129Z" fill="white"/>
<path d="M77.4958 15.4348H76.305V12.4435C76.305 11.5217 75.9459 11.0609 75.2255 11.0609C74.8721 11.0609 74.5869 11.1872 74.3653 11.4409C74.146 11.6946 74.0347 11.9937 74.0347 12.336V15.4337H72.8438V11.7045C72.8438 11.2459 72.8291 10.7484 72.8007 10.21H73.8472L73.9029 11.0265H73.9358C74.0744 10.7728 74.2812 10.5634 74.5528 10.3961C74.8755 10.2011 75.2369 10.1025 75.6323 10.1025C76.1322 10.1025 76.5481 10.2599 76.8788 10.5756C77.2901 10.9623 77.4958 11.5395 77.4958 12.3061V15.4348Z" fill="white"/>
<path d="M80.7775 15.4353H79.5878V7.81641H80.7775V15.4353Z" fill="white"/>
<path d="M87.7889 12.7809C87.7889 13.5841 87.5537 14.2422 87.0833 14.7584C86.5901 15.2891 85.9356 15.5539 85.1209 15.5539C84.3335 15.5539 83.7074 15.3002 83.2415 14.7906C82.7756 14.282 82.5427 13.6406 82.5427 12.8673C82.5427 12.0585 82.7824 11.3949 83.2642 10.8797C83.746 10.3646 84.3937 10.1064 85.2084 10.1064C85.9958 10.1064 86.6265 10.3601 87.106 10.8687C87.5605 11.3628 87.7889 12.0009 87.7889 12.7809ZM86.5526 12.8185C86.5526 12.3366 86.4458 11.9234 86.2333 11.5788C85.9845 11.1623 85.6277 10.954 85.1664 10.954C84.6868 10.954 84.3232 11.1623 84.0744 11.5788C83.8608 11.9234 83.7551 12.3433 83.7551 12.8396C83.7551 13.3215 83.8619 13.7348 84.0744 14.0793C84.3323 14.4959 84.6914 14.7041 85.155 14.7041C85.6095 14.7041 85.9652 14.4925 86.222 14.0682C86.4435 13.717 86.5526 13.3005 86.5526 12.8185Z" fill="white"/>
<path d="M93.5516 15.4353H92.4824L92.3937 14.8338H92.3608C91.9949 15.3135 91.4733 15.5539 90.7961 15.5539C90.2905 15.5539 89.8814 15.3955 89.5735 15.0808C89.2939 14.795 89.1542 14.4394 89.1542 14.0173C89.1542 13.3791 89.4269 12.8928 89.9757 12.556C90.5234 12.2192 91.2938 12.0541 92.2858 12.0619V11.9644C92.2858 11.2764 91.9153 10.9329 91.1734 10.9329C90.645 10.9329 90.1791 11.0625 89.7769 11.3196L89.5348 10.5574C90.0325 10.2571 90.6473 10.1064 91.3722 10.1064C92.7721 10.1064 93.4743 10.8266 93.4743 12.2668V14.1901C93.4743 14.7119 93.5005 15.1274 93.5516 15.4353ZM92.3153 13.6406V12.8352C91.0018 12.813 90.345 13.1642 90.345 13.8876C90.345 14.1602 90.42 14.364 90.5734 14.5003C90.7268 14.6366 90.9222 14.7041 91.1552 14.7041C91.4165 14.7041 91.6608 14.6233 91.8835 14.4626C92.1074 14.3009 92.2449 14.0959 92.296 13.8444C92.3085 13.7879 92.3153 13.7192 92.3153 13.6406Z" fill="white"/>
<path d="M100.32 15.4353H99.2635L99.2078 14.5966H99.1748C98.8373 15.2348 98.2624 15.5538 97.4545 15.5538C96.8091 15.5538 96.2716 15.3068 95.8455 14.8127C95.4194 14.3186 95.2069 13.6771 95.2069 12.8894C95.2069 12.0441 95.4376 11.3594 95.9012 10.8365C96.35 10.349 96.9 10.1053 97.5545 10.1053C98.2737 10.1053 98.7771 10.3413 99.0635 10.8143H99.0862V7.81641H100.278V14.0283C100.278 14.5368 100.292 15.0054 100.32 15.4353ZM99.0862 13.2328V12.362C99.0862 12.2114 99.0748 12.0895 99.0532 11.9964C98.9862 11.7173 98.8419 11.4824 98.6226 11.2929C98.401 11.1035 98.134 11.0082 97.826 11.0082C97.3818 11.0082 97.0341 11.1799 96.7784 11.5245C96.525 11.869 96.3966 12.3089 96.3966 12.8462C96.3966 13.3625 96.5182 13.7812 96.7625 14.1036C97.0204 14.4471 97.3681 14.6188 97.8033 14.6188C98.1942 14.6188 98.5067 14.4759 98.7442 14.1889C98.9737 13.9241 99.0862 13.6051 99.0862 13.2328Z" fill="white"/>
<path d="M110.504 12.7809C110.504 13.5841 110.269 14.2422 109.798 14.7584C109.305 15.2891 108.653 15.5539 107.836 15.5539C107.051 15.5539 106.425 15.3002 105.957 14.7906C105.491 14.282 105.258 13.6406 105.258 12.8673C105.258 12.0585 105.498 11.3949 105.979 10.8797C106.461 10.3646 107.109 10.1064 107.926 10.1064C108.711 10.1064 109.344 10.3601 109.821 10.8687C110.276 11.3628 110.504 12.0009 110.504 12.7809ZM109.27 12.8185C109.27 12.3366 109.163 11.9234 108.951 11.5788C108.7 11.1623 108.345 10.954 107.882 10.954C107.404 10.954 107.041 11.1623 106.79 11.5788C106.576 11.9234 106.47 12.3433 106.47 12.8396C106.47 13.3215 106.577 13.7348 106.79 14.0793C107.047 14.4959 107.407 14.7041 107.87 14.7041C108.325 14.7041 108.683 14.4925 108.939 14.0682C109.159 13.717 109.27 13.3005 109.27 12.8185Z" fill="white"/>
<path d="M116.909 15.435H115.719V12.4437C115.719 11.522 115.36 11.0611 114.638 11.0611C114.285 11.0611 114 11.1874 113.779 11.4411C113.559 11.6948 113.449 11.9939 113.449 12.3363V15.4339H112.257V11.7048C112.257 11.2461 112.243 10.7487 112.215 10.2102H113.26L113.316 11.0268H113.349C113.488 10.7731 113.695 10.5637 113.966 10.3964C114.29 10.2014 114.65 10.1028 115.046 10.1028C115.545 10.1028 115.961 10.2601 116.292 10.5758C116.704 10.9625 116.909 11.5397 116.909 12.3064V15.435Z" fill="white"/>
<path d="M124.922 11.0822H123.611V13.6192C123.611 14.264 123.844 14.5864 124.305 14.5864C124.519 14.5864 124.696 14.5687 124.836 14.5321L124.867 15.4129C124.631 15.4993 124.322 15.5425 123.942 15.5425C123.471 15.5425 123.105 15.4029 122.841 15.1238C122.575 14.8446 122.443 14.3748 122.443 13.7156V11.0822H121.66V10.2125H122.443V9.25531L123.61 8.91187V10.2114H124.921V11.0822H124.922Z" fill="white"/>
<path d="M131.224 15.4353H130.032V12.4662C130.032 11.53 129.673 11.0614 128.954 11.0614C128.402 11.0614 128.025 11.3328 127.818 11.8757C127.782 11.9898 127.762 12.1294 127.762 12.2934V15.4342H126.572V7.81641H127.762V10.9639H127.785C128.16 10.3911 128.697 10.1053 129.394 10.1053C129.887 10.1053 130.295 10.2626 130.619 10.5784C131.022 10.9716 131.224 11.5566 131.224 12.3299V15.4353Z" fill="white"/>
<path d="M137.729 12.5767C137.729 12.785 137.713 12.9601 137.685 13.103H134.113C134.129 13.6193 134.3 14.0125 134.63 14.2851C134.932 14.5288 135.322 14.6507 135.799 14.6507C136.328 14.6507 136.81 14.5687 137.244 14.4036L137.43 15.2102C136.922 15.4251 136.324 15.5326 135.632 15.5326C134.803 15.5326 134.15 15.2944 133.677 14.818C133.202 14.3416 132.967 13.7023 132.967 12.9002C132.967 12.1125 133.186 11.4567 133.628 10.9337C134.089 10.3754 134.713 10.0962 135.501 10.0962C136.271 10.0962 136.856 10.3754 137.252 10.9337C137.571 11.3769 137.729 11.9253 137.729 12.5767ZM136.593 12.2765C136.602 11.9319 136.523 11.635 136.362 11.3847C136.155 11.0623 135.84 10.9005 135.414 10.9005C135.026 10.9005 134.709 11.0578 134.467 11.3736C134.269 11.6251 134.152 11.9253 134.113 12.2765H136.593Z" fill="white"/>
</svg>
