<svg width="44" height="49" viewBox="0 0 44 49" fill="none" xmlns="http://www.w3.org/2000/svg">
<path d="M37.2605 29.545C37.2606 29.5336 37.2612 29.5224 37.2612 29.511C37.2612 26.7912 35.3061 24.5786 32.9028 24.5786C31.3095 24.5786 29.9138 25.5517 29.1536 26.9997C26.8094 26.5871 24.3471 26.3775 21.8233 26.3775C18.1226 26.3775 14.5606 26.8295 11.4067 27.6785V18.2499C13.5876 16.067 16.932 16.154 19.0167 18.5133C20.4323 20.1153 22.2917 20.9163 24.1511 20.9163C26.0105 20.9163 27.8699 20.1153 29.2855 18.5133C29.445 18.3328 29.5347 18.0878 29.5347 17.8324V5.68428C29.5347 5.29481 29.3274 4.94377 29.0096 4.79459C28.6916 4.64551 28.3256 4.72766 28.0822 5.003C25.9145 7.45363 22.3875 7.45382 20.2205 5.00358C18.8499 3.45101 17.0271 2.596 15.0879 2.596C13.7724 2.596 12.5107 2.99057 11.4066 3.72838V0.983335C11.4066 0.451431 11.0256 0.0202637 10.5556 0.0202637C10.0856 0.0202637 9.70459 0.451431 9.70459 0.983335V28.1889C8.63709 28.5433 7.62712 28.9464 6.68846 29.3968C2.40033 31.455 0.0387878 34.2925 0.0387878 37.3867C0.0387878 40.481 2.40041 43.3185 6.68854 45.3766C10.7453 47.3236 16.1202 48.3959 21.8233 48.3959C27.5266 48.3959 32.902 47.3236 36.9592 45.3766C41.2482 43.3185 43.6103 40.4809 43.6103 37.3867C43.6103 34.3608 41.3607 31.5924 37.2605 29.545ZM15.088 4.52214C16.5722 4.52214 17.9673 5.17655 19.017 6.36555C21.4031 9.06331 25.0503 9.48716 27.8327 7.63748V17.4171C26.8157 18.4371 25.521 18.9946 24.1511 18.9946C22.6665 18.9946 21.2705 18.3401 20.2203 17.1515C17.8357 14.4528 14.1893 14.0289 11.4067 15.8793V6.10148C12.4238 5.08091 13.7178 4.52214 15.088 4.52214ZM32.9028 26.5047C34.3676 26.5047 35.5592 27.8533 35.5592 29.511C35.5592 29.6644 35.5489 29.8151 35.5292 29.9623C35.526 29.9795 35.5237 29.9965 35.5214 30.0137C35.3093 31.4327 34.2162 32.5171 32.9028 32.5171C31.4381 32.5171 30.2464 31.1685 30.2464 29.5109C30.2464 27.8532 31.438 26.5047 32.9028 26.5047ZM36.2948 43.6034C32.4429 45.4518 27.3035 46.4698 21.8233 46.4698C16.3434 46.4698 11.2044 45.4518 7.35309 43.6034C3.78644 41.8915 1.7408 39.6256 1.7408 37.3867C1.7408 35.1479 3.78644 32.882 7.35309 31.1701C8.09168 30.8156 8.87801 30.492 9.70467 30.1999V33.4698C6.97916 33.7514 4.95011 35.3708 4.95011 37.3867C4.95011 39.6075 7.41241 41.3472 10.5557 41.3472C13.7003 41.3472 16.1636 39.6075 16.1636 37.3867C16.1636 35.3706 14.1336 33.7513 11.4067 33.4697V29.6597C14.5221 28.7756 18.0935 28.3036 21.8233 28.3036C24.1493 28.3036 26.4192 28.4872 28.5847 28.8496C28.5589 29.0661 28.5443 29.2866 28.5443 29.5109C28.5443 32.2306 30.4995 34.4432 32.9027 34.4432C34.6896 34.4432 36.228 33.2195 36.9 31.4742C40.0956 33.1476 41.9082 35.272 41.9082 37.3867C41.9082 39.6255 39.8623 41.8914 36.2948 43.6034ZM10.5557 35.3524C12.7913 35.3524 14.4616 36.4264 14.4616 37.3867C14.4616 38.3471 12.7913 39.4211 10.5557 39.4211C8.35728 39.4211 6.65212 38.3276 6.65212 37.3867C6.65212 36.4459 8.35736 35.3524 10.5557 35.3524Z" fill="white"/>
</svg>
