<svg width="36" height="47" viewBox="0 0 36 47" fill="none" xmlns="http://www.w3.org/2000/svg">
<path d="M33.8872 14.1047C34.0462 14.2785 34.2547 14.3654 34.4632 14.3654C34.6715 14.3654 34.8798 14.2786 35.0388 14.1051C35.357 13.7578 35.3571 13.1947 35.0392 12.8471L31.6365 9.12797C31.3186 8.78053 30.803 8.78017 30.4848 9.12761C30.1666 9.47488 30.1665 10.038 30.4844 10.3856L31.6097 11.6155L29.3431 14.0911C26.9635 11.7238 24.0708 10.1679 20.9489 9.54987V6.81372H23.3132C23.7629 6.81372 24.1276 6.41548 24.1276 5.9242V3.89201C24.1277 2.28092 22.9277 0.970215 21.4527 0.970215H14.2896C12.8147 0.970215 11.6146 2.28092 11.6146 3.89201V5.92429C11.6146 6.41557 11.9793 6.81381 12.429 6.81381H14.7933V9.54951C11.6714 10.1676 8.77871 11.7238 6.39906 14.0911L4.13245 11.6155L5.25777 10.3856C5.57571 10.038 5.57555 9.47488 5.25737 9.12761C4.93935 8.78035 4.42359 8.78061 4.10566 9.12797L0.702972 12.8471C0.385034 13.1947 0.385197 13.7578 0.703379 14.1051C0.862348 14.2787 1.07067 14.3654 1.27899 14.3654C1.48756 14.3654 1.69604 14.2784 1.85501 14.1047L2.98106 12.874L5.24759 15.3496C-0.835818 22.6532 -0.648916 34.0022 5.80944 41.0564C9.03141 44.5754 13.315 46.5135 17.8711 46.5135C22.4272 46.5135 26.7108 44.5754 29.9327 41.0563C36.3911 34.0021 36.578 22.653 30.4946 15.3495L32.7611 12.8739L33.8872 14.1047ZM13.2434 3.89201C13.2434 3.26197 13.7127 2.74925 14.2896 2.74925H21.4527C22.0296 2.74925 22.499 3.26188 22.499 3.89201V5.03477H13.2434V3.89201H13.2434ZM16.4221 6.81381H19.3202V9.31521C18.8408 9.27145 18.3576 9.24797 17.8711 9.24797C17.3846 9.24797 16.9014 9.27118 16.4221 9.31495V6.81381ZM28.781 39.7983C22.7654 46.369 12.9769 46.369 6.96123 39.7983C0.944846 33.227 0.944846 22.5345 6.96123 15.9632C9.9691 12.6779 13.9201 11.0351 17.8711 11.0351C21.8221 11.0351 25.7732 12.6778 28.781 15.9631C34.7974 22.5345 34.7974 33.2269 28.781 39.7983Z" fill="#1A4139"/>
<path d="M17.8715 13.3398C14.3155 13.3398 10.972 14.8528 8.4568 17.6C3.26669 23.269 3.26669 32.493 8.45696 38.1622C11.0529 40.9962 14.4623 42.4132 17.8716 42.4132C21.2807 42.4132 24.6897 40.9962 27.2845 38.162C32.4746 32.4931 32.4746 23.269 27.2846 17.6002C24.7705 14.8528 21.4275 13.3398 17.8715 13.3398ZM17.8718 26.2264C18.7058 26.2264 19.3843 26.9686 19.3843 27.8809C19.3843 28.7919 18.7058 29.533 17.8718 29.533C17.0365 29.533 16.3569 28.7919 16.3569 27.8809C16.3569 26.9686 17.0365 26.2264 17.8718 26.2264ZM26.1326 36.9039C21.5779 41.8786 14.1653 41.8787 9.60851 36.9039C5.05338 31.9286 5.05338 23.8333 9.60851 18.8579C11.623 16.6576 14.243 15.3599 17.0574 15.1497V24.5648C15.7176 24.9577 14.7281 26.2952 14.7281 27.8809C14.7281 29.7729 16.1383 31.3121 17.8718 31.3121C19.3222 31.3121 20.5457 30.2325 20.9054 28.7705H29.5206C29.3325 31.7356 28.2034 34.6422 26.1326 36.9039ZM20.9056 26.9914C20.6159 25.8121 19.7649 24.8819 18.6862 24.565V15.1498C21.5002 15.3602 24.1192 16.6577 26.1327 18.858C28.2035 21.1197 29.3325 24.0263 29.5206 26.9915H20.9056V26.9914Z" fill="#1A4139"/>
</svg>
