<svg width="54" height="64" viewBox="0 0 54 64" fill="none" xmlns="http://www.w3.org/2000/svg">
<ellipse cx="17.4551" cy="40.9989" rx="17" ry="22.2113" fill="url(#paint0_linear_2270_670)"/>
<g clip-path="url(#clip0_2270_670)">
<path d="M45.0725 2.58761H38.9722V1.70139C38.9722 1.16839 38.5401 0.736328 38.0071 0.736328H20.316C19.783 0.736328 19.3509 1.16839 19.3509 1.70139V2.58761H13.2506C11.1933 2.58761 9.51953 4.26131 9.51953 6.31863V46.4166C9.51953 48.4738 11.1932 50.1475 13.2506 50.1475H45.0725C47.1297 50.1475 48.8035 48.4738 48.8035 46.4165V6.31863C48.8035 4.26131 47.1298 2.58761 45.0725 2.58761ZM20.316 10.6274H38.007C38.54 10.6274 38.9721 10.1954 38.9721 9.66238V8.76796H42.6231V43.9671H15.6999V8.76796H19.3509V9.66238C19.3509 10.1954 19.783 10.6274 20.316 10.6274ZM21.281 2.66645H37.0419V8.69732H21.281V2.66645ZM46.8734 46.4165C46.8734 47.4095 46.0655 48.2174 45.0725 48.2174H13.2506C12.2575 48.2174 11.4497 47.4095 11.4497 46.4165V6.31863C11.4497 5.32558 12.2575 4.51773 13.2506 4.51773H19.3509V6.83783H14.7348C14.2018 6.83783 13.7698 7.26989 13.7698 7.8029V44.9322C13.7698 45.4652 14.2018 45.8973 14.7348 45.8973H43.5882C44.1212 45.8973 44.5533 45.4652 44.5533 44.9322V7.8029C44.5533 7.26989 44.1212 6.83783 43.5882 6.83783H38.9722V4.51773H45.0725C46.0655 4.51773 46.8734 5.32558 46.8734 6.31863V46.4165Z" fill="#1A4139"/>
<path d="M18.6797 19.2829V39.9891C18.6797 40.5221 19.1117 40.9542 19.6447 40.9542H38.6804C39.2134 40.9542 39.6455 40.5221 39.6455 39.9891V19.2829C39.6455 18.7499 39.2134 18.3179 38.6804 18.3179H19.6447C19.1117 18.3179 18.6797 18.7499 18.6797 19.2829ZM20.6098 30.6025H24.1869V33.8482H20.6098V30.6025ZM26.117 30.6025H37.7153V33.8482H26.117V30.6025ZM37.7153 28.6724H26.117V25.4239H37.7153V28.6724ZM24.1869 28.6724H20.6098V25.4239H24.1869V28.6724ZM20.6098 35.7783H24.1869V39.024H20.6098V35.7783ZM26.117 39.024V35.7783H37.7153V39.024H26.117ZM37.7153 23.4937H26.117V20.248H37.7153V23.4937ZM24.1869 20.248V23.4937H20.6098V20.248H24.1869Z" fill="#1A4139"/>
<path d="M22.0606 15.1789H36.2627C36.7957 15.1789 37.2278 14.7468 37.2278 14.2138C37.2278 13.6808 36.7957 13.2488 36.2627 13.2488H22.0606C21.5276 13.2488 21.0955 13.6808 21.0955 14.2138C21.0955 14.7468 21.5277 15.1789 22.0606 15.1789Z" fill="#1A4139"/>
<path d="M33.2405 6.64572C33.7735 6.64572 34.2055 6.21096 34.2055 5.67795C34.2055 5.14495 33.7735 4.71289 33.2405 4.71289C32.7074 4.71289 32.2754 5.14495 32.2754 5.67795V5.68345C32.2754 6.21636 32.7074 6.64572 33.2405 6.64572Z" fill="#1A4139"/>
<path d="M25.084 6.64547C25.617 6.64547 26.049 6.21071 26.049 5.67771C26.049 5.1447 25.617 4.71265 25.084 4.71265C24.551 4.71265 24.1189 5.1447 24.1189 5.67771V5.68321C24.1189 6.21612 24.551 6.64547 25.084 6.64547Z" fill="#1A4139"/>
</g>
<defs>
<linearGradient id="paint0_linear_2270_670" x1="17.4551" y1="18.7876" x2="17.4551" y2="63.2103" gradientUnits="userSpaceOnUse">
<stop stop-color="#495846" stop-opacity="0.16"/>
<stop offset="1" stop-color="#495846" stop-opacity="0"/>
</linearGradient>
<clipPath id="clip0_2270_670">
<rect width="49.4112" height="49.4112" fill="white" transform="translate(4.45508 0.736328)"/>
</clipPath>
</defs>
</svg>
