<svg width="50" height="62" viewBox="0 0 50 62" fill="none" xmlns="http://www.w3.org/2000/svg">
<ellipse cx="17.6172" cy="39.4731" rx="17" ry="22.2113" fill="url(#paint0_linear_2270_681)"/>
<path d="M49.387 43.4576C49.2539 34.9238 44.5303 33.4071 39.5293 31.8014C39.0581 31.65 38.5758 31.4952 38.0895 31.3324V27.9949C40.8223 26.1114 42.6914 22.9383 42.9185 19.2978H43.4963C45.3274 19.2978 46.817 17.7219 46.817 15.7849C46.817 13.848 45.3273 12.2721 43.4963 12.2721H42.9419V9.11071C42.9419 4.2314 39.1895 0.261719 34.5769 0.261719H30.0094C25.3955 0.261719 21.6418 4.2313 21.6418 9.11071V12.2722H21.0874C19.2578 12.2722 17.7693 13.8481 17.7693 15.785C17.7693 17.722 19.2578 19.2979 21.0874 19.2979H21.6652C21.8924 22.9395 23.7626 26.1136 26.4969 27.9968V31.3323C26.0107 31.495 25.5285 31.6498 25.0573 31.801C20.0549 33.4067 15.3299 34.9232 15.1993 43.458C15.1992 43.4634 15.1992 43.4687 15.1992 43.4741V50.309C15.1992 50.8596 15.6212 51.3059 16.1416 51.3059H48.4446C48.965 51.3059 49.387 50.8596 49.387 50.309V43.474C49.3871 43.4686 49.3871 43.4632 49.387 43.4576ZM39.1784 33.7725L36.9242 37.0129L34.8237 35.2856C35.4745 34.5019 36.2754 33.806 37.2682 33.1476C37.8507 33.3455 39.1128 33.7514 39.1784 33.7725ZM36.2046 31.499C35.0661 32.2564 33.8119 33.2809 32.7626 34.8366C32.7599 34.8402 32.7569 34.8432 32.7543 34.8468C32.7295 34.8805 32.708 34.9156 32.6879 34.9514C32.5526 35.1572 32.4199 35.3698 32.2925 35.5945C32.163 35.366 32.028 35.1498 31.8902 34.9407C31.8718 34.9086 31.8519 34.8771 31.8295 34.8468C31.829 34.846 31.8283 34.8454 31.8278 34.8446C30.7786 33.2862 29.5222 32.2588 28.3819 31.4993V29.0284C29.593 29.5359 30.9122 29.8149 32.2919 29.8149C33.6727 29.8149 34.9927 29.5354 36.2046 29.0272V31.499ZM44.9322 15.785C44.9322 16.6226 44.288 17.304 43.4963 17.304H42.9419V14.2661H43.4963C44.288 14.2661 44.9322 14.9475 44.9322 15.785ZM23.5266 9.11071C23.5266 5.33085 26.4348 2.25563 30.0094 2.25563H34.5769C38.1501 2.25563 41.0571 5.33085 41.0571 9.11071V12.2722H23.5266V9.11071ZM40.9381 14.2661C40.4452 16.2587 38.4826 17.2955 36.5397 17.2955H28.0466C26.1025 17.2955 24.1389 16.2587 23.6457 14.2661H40.9381ZM19.6543 15.785C19.6543 14.9475 20.2972 14.2661 21.0875 14.2661H21.6419V17.304H21.0875C20.2972 17.3039 19.6543 16.6225 19.6543 15.785ZM23.5266 18.5488V17.6107C24.7562 18.7144 26.4274 19.2894 28.0466 19.2894H36.5397C38.1579 19.2894 39.8281 18.7146 41.0571 17.6114V18.5488C41.0571 23.6616 37.125 27.8211 32.2919 27.8211C27.4587 27.8212 23.5266 23.6616 23.5266 18.5488ZM27.3178 33.1478C28.3103 33.8067 29.1107 34.5023 29.7609 35.2851L27.6596 37.013L25.4057 33.773C25.4721 33.7516 26.7355 33.3455 27.3178 33.1478ZM47.5023 49.312H42.4972V44.8348C42.4972 44.2842 42.0752 43.8378 41.5548 43.8378C41.0344 43.8378 40.6123 44.2842 40.6123 44.8348V49.312H23.9715V44.8348C23.9715 44.2842 23.5494 43.8378 23.029 43.8378C22.5086 43.8378 22.0866 44.2842 22.0866 44.8348V49.312H17.0842V43.4821C17.1354 40.2094 17.9087 38.0054 19.5175 36.5459C20.5753 35.5863 21.9379 34.9648 23.5062 34.4064L26.715 39.019C26.8657 39.2357 27.0927 39.3786 27.3445 39.4156C27.3877 39.4219 27.4309 39.4251 27.474 39.4251C27.6823 39.4251 27.886 39.352 28.0524 39.2153L30.8424 36.9211C31.0296 37.2826 31.1979 37.6627 31.3495 38.0647V42.4543C31.3495 43.0049 31.7715 43.4512 32.2919 43.4512C32.8123 43.4512 33.2343 43.0049 33.2343 42.4543V38.0651C33.3863 37.6632 33.5548 37.2832 33.742 36.9218L36.5314 39.2154C36.6978 39.3522 36.9015 39.4252 37.1098 39.4252C37.1529 39.4252 37.1961 39.4221 37.2393 39.4157C37.4911 39.3787 37.7181 39.2358 37.8688 39.0191L41.0779 34.4061C42.6464 34.9646 44.0092 35.5862 45.0673 36.5462C46.6763 38.0059 47.4501 40.21 47.5024 43.4826V49.312H47.5023Z" fill="#1A4139"/>
<path d="M33.7439 6.26855H30.8409C30.3205 6.26855 29.8984 6.71489 29.8984 7.26551C29.8984 7.81613 30.3205 8.26247 30.8409 8.26247H33.7439C34.2643 8.26247 34.6864 7.81613 34.6864 7.26551C34.6864 6.71489 34.2643 6.26855 33.7439 6.26855Z" fill="#1A4139"/>
<defs>
<linearGradient id="paint0_linear_2270_681" x1="17.6172" y1="17.2617" x2="17.6172" y2="61.6844" gradientUnits="userSpaceOnUse">
<stop stop-color="#495846" stop-opacity="0.16"/>
<stop offset="1" stop-color="#495846" stop-opacity="0"/>
</linearGradient>
</defs>
</svg>
