<svg width="158" height="47" viewBox="0 0 158 47" fill="none" xmlns="http://www.w3.org/2000/svg">
<path d="M152.156 46.3506H6.02854C2.81521 46.3506 0.183456 43.7811 0.183456 40.6438V6.40295C0.183456 3.26564 2.81521 0.696147 6.02854 0.696147H152.156C155.369 0.696147 158.001 3.26564 158.001 6.40295V40.6438C158.001 43.7811 155.369 46.3506 152.156 46.3506Z" fill="black"/>
<path d="M152.156 1.61066C154.862 1.61066 157.064 3.7607 157.064 6.40295V40.6438C157.064 43.286 154.862 45.4361 152.156 45.4361H6.02854C3.32227 45.4361 1.12013 43.286 1.12013 40.6438V6.40295C1.12013 3.7607 3.32227 1.61066 6.02854 1.61066H152.156ZM152.156 0.696147H6.02854C2.81521 0.696147 0.183456 3.26564 0.183456 6.40295V40.6438C0.183456 43.7811 2.81521 46.3506 6.02854 46.3506H152.156C155.369 46.3506 158.001 43.7811 158.001 40.6438V6.40295C158.001 3.26564 155.369 0.696147 152.156 0.696147Z" fill="#A6A6A6"/>
<path d="M55.6152 12.3879C55.6152 13.3409 55.323 14.1042 54.7472 14.6734C54.0853 15.3483 53.2231 15.6878 52.1666 15.6878C51.1569 15.6878 50.2947 15.3426 49.5875 14.662C48.8788 13.9715 48.5251 13.124 48.5251 12.1097C48.5251 11.0953 48.8788 10.2478 49.5875 9.563C50.2947 8.87676 51.1569 8.53149 52.1666 8.53149C52.6693 8.53149 53.1486 8.63279 53.606 8.82111C54.0619 9.01087 54.4331 9.26767 54.7019 9.5844L54.0911 10.1865C53.622 9.64575 52.9835 9.37896 52.1666 9.37896C51.4301 9.37896 50.7916 9.63005 50.2494 10.1365C49.7131 10.6444 49.4443 11.3021 49.4443 12.1097C49.4443 12.9172 49.7131 13.5806 50.2494 14.0885C50.7916 14.5893 51.4301 14.8461 52.1666 14.8461C52.9484 14.8461 53.606 14.5893 54.1247 14.0828C54.4667 13.7475 54.661 13.2853 54.7122 12.6946H52.1666V11.87H55.5626C55.6035 12.0483 55.6152 12.2209 55.6152 12.3879Z" fill="white" stroke="white" stroke-width="0.158048" stroke-miterlimit="10"/>
<path d="M61.0048 9.52905H57.8148V11.6976H60.6906V12.5223H57.8148V14.6909H61.0048V15.5312H56.9117V8.68872H61.0048V9.52905Z" fill="white" stroke="white" stroke-width="0.158048" stroke-miterlimit="10"/>
<path d="M64.8049 15.5314H63.9018V9.52929H61.9452V8.68896H66.763V9.52929H64.8049V15.5314Z" fill="white" stroke="white" stroke-width="0.158048" stroke-miterlimit="10"/>
<path d="M70.2501 15.5312V8.68872H71.1517V15.5312H70.2501Z" fill="white" stroke="white" stroke-width="0.158048" stroke-miterlimit="10"/>
<path d="M75.1506 15.5314H74.2548V9.52929H72.2909V8.68896H77.1145V9.52929H75.1506V15.5314Z" fill="white" stroke="white" stroke-width="0.158048" stroke-miterlimit="10"/>
<path d="M86.2333 14.6504C85.5421 15.3423 84.6858 15.6876 83.6644 15.6876C82.6371 15.6876 81.7808 15.3423 81.0896 14.6504C80.3999 13.9598 80.0565 13.1124 80.0565 12.1094C80.0565 11.1064 80.3999 10.259 81.0896 9.56846C81.7808 8.87651 82.6371 8.53125 83.6644 8.53125C84.68 8.53125 85.5363 8.87651 86.2275 9.57417C86.923 10.2704 87.2664 11.1122 87.2664 12.1094C87.2664 13.1124 86.923 13.9598 86.2333 14.6504ZM81.7574 14.0768C82.2777 14.589 82.9104 14.8458 83.6644 14.8458C84.4126 14.8458 85.0511 14.589 85.5655 14.0768C86.0843 13.5647 86.3473 12.9069 86.3473 12.1094C86.3473 11.3119 86.0843 10.6542 85.5655 10.142C85.0511 9.62981 84.4126 9.373 83.6644 9.373C82.9104 9.373 82.2777 9.62981 81.7574 10.142C81.2387 10.6542 80.9757 11.3119 80.9757 12.1094C80.9757 12.9069 81.2387 13.5647 81.7574 14.0768Z" fill="white" stroke="white" stroke-width="0.158048" stroke-miterlimit="10"/>
<path d="M88.5311 15.5314V8.68896H89.6271L93.0347 14.0106H93.0742L93.0347 12.6951V8.68896H93.9363V15.5314H92.9953L89.4269 9.94732H89.3874L89.4269 11.2684V15.5314H88.5311Z" fill="white" stroke="white" stroke-width="0.158048" stroke-miterlimit="10"/>
<path d="M79.8345 25.524C77.0888 25.524 74.8458 27.5642 74.8458 30.3791C74.8458 33.1712 77.0888 35.2327 79.8345 35.2327C82.5861 35.2327 84.8292 33.1712 84.8292 30.3791C84.8292 27.5642 82.5861 25.524 79.8345 25.524ZM79.8345 33.321C78.328 33.321 77.0318 32.1068 77.0318 30.3791C77.0318 28.6285 78.328 27.4358 79.8345 27.4358C81.3411 27.4358 82.6431 28.6285 82.6431 30.3791C82.6431 32.1068 81.3411 33.321 79.8345 33.321ZM68.9495 25.524C66.198 25.524 63.9607 27.5642 63.9607 30.3791C63.9607 33.1712 66.198 35.2327 68.9495 35.2327C71.6996 35.2327 73.9383 33.1712 73.9383 30.3791C73.9383 27.5642 71.6996 25.524 68.9495 25.524ZM68.9495 33.321C67.4415 33.321 66.141 32.1068 66.141 30.3791C66.141 28.6285 67.4415 27.4358 68.9495 27.4358C70.4561 27.4358 71.7523 28.6285 71.7523 30.3791C71.7523 32.1068 70.4561 33.321 68.9495 33.321ZM55.9968 27.0121V29.0751H61.0426C60.895 30.2279 60.5005 31.0753 59.8955 31.666C59.159 32.3793 58.0119 33.1712 55.9968 33.1712C52.8916 33.1712 50.4601 30.7244 50.4601 27.6926C50.4601 24.6609 52.8916 22.2141 55.9968 22.2141C57.6758 22.2141 58.8974 22.8547 59.799 23.685L61.2881 22.2312C60.027 21.0556 58.3495 20.1525 55.9968 20.1525C51.7387 20.1525 48.16 23.5352 48.16 27.6926C48.16 31.85 51.7387 35.2327 55.9968 35.2327C58.2983 35.2327 60.027 34.4966 61.386 33.1155C62.7786 31.7559 63.2126 29.8441 63.2126 28.3004C63.2126 27.821 63.1717 27.3802 63.0986 27.0121H55.9968ZM108.962 28.6114C108.551 27.5257 107.285 25.524 104.704 25.524C102.147 25.524 100.018 27.4915 100.018 30.3791C100.018 33.0984 102.125 35.2327 104.949 35.2327C107.233 35.2327 108.551 33.8731 109.094 33.0813L107.399 31.9784C106.833 32.7859 106.063 33.321 104.949 33.321C103.843 33.321 103.05 32.8259 102.541 31.85L109.191 29.1635L108.962 28.6114ZM102.182 30.2279C102.125 28.356 103.671 27.3973 104.778 27.3973C105.646 27.3973 106.383 27.821 106.628 28.4274L102.182 30.2279ZM96.7765 34.9374H98.9626V20.6704H96.7765V34.9374ZM93.1964 26.6055H93.1233C92.6324 26.0376 91.6957 25.524 90.5091 25.524C88.0191 25.524 85.7425 27.6584 85.7425 30.3948C85.7425 33.1155 88.0191 35.2327 90.5091 35.2327C91.6957 35.2327 92.6324 34.7148 93.1233 34.1299H93.1964V34.8261C93.1964 36.6823 92.1808 37.6795 90.5427 37.6795C89.2071 37.6795 88.3786 36.7379 88.0367 35.9461L86.1355 36.7208C86.6835 38.0077 88.1346 39.5913 90.5427 39.5913C93.1058 39.5913 95.2685 38.119 95.2685 34.5365V25.8194H93.1964V26.6055ZM90.6962 33.321C89.1896 33.321 87.9285 32.0897 87.9285 30.3948C87.9285 28.6842 89.1896 27.4358 90.6962 27.4358C92.1808 27.4358 93.3513 28.6842 93.3513 30.3948C93.3513 32.0897 92.1808 33.321 90.6962 33.321ZM119.197 20.6704H113.968V34.9374H116.149V29.5316H119.197C121.618 29.5316 123.993 27.821 123.993 25.1003C123.993 22.381 121.612 20.6704 119.197 20.6704ZM119.254 27.5471H116.149V22.6549H119.254C120.882 22.6549 121.811 23.9746 121.811 25.1003C121.811 26.2046 120.882 27.5471 119.254 27.5471ZM132.731 25.4969C131.156 25.4969 129.518 26.176 128.844 27.6812L130.779 28.473C131.195 27.6812 131.961 27.4244 132.771 27.4244C133.902 27.4244 135.049 28.0878 135.066 29.2591V29.4089C134.672 29.1864 133.827 28.8568 132.788 28.8568C130.704 28.8568 128.581 29.9768 128.581 32.0669C128.581 33.9787 130.288 35.2099 132.207 35.2099C133.674 35.2099 134.483 34.5636 134.992 33.8117H135.066V34.9146H137.172V29.4418C137.172 26.9122 135.237 25.4969 132.731 25.4969ZM132.468 33.3153C131.755 33.3153 130.761 32.97 130.761 32.1068C130.761 31.0026 132 30.5788 133.073 30.5788C134.033 30.5788 134.483 30.7857 135.066 31.0582C134.895 32.3793 133.731 33.3153 132.468 33.3153ZM144.844 25.8094L142.338 31.9941H142.263L139.672 25.8094H137.321L141.214 34.4523L138.993 39.2617H141.271L147.269 25.8094H144.844ZM125.191 34.9374H127.377V20.6704H125.191V34.9374Z" fill="white"/>
<path d="M12.3819 9.30078C12.0385 9.65175 11.8397 10.1982 11.8397 10.9058V36.147C11.8397 36.8547 12.0385 37.4011 12.3819 37.7521L12.4666 37.8291L26.9537 23.6905V23.3566L12.4666 9.21803L12.3819 9.30078Z" fill="url(#paint0_linear_2270_600)"/>
<path d="M31.7769 28.4055L26.9532 23.6903V23.3564L31.7828 18.6412L31.8909 18.7025L37.6103 21.8798C39.2425 22.7815 39.2425 24.2652 37.6103 25.1726L31.8909 28.3442L31.7769 28.4055Z" fill="url(#paint1_linear_2270_600)"/>
<path d="M31.8939 28.3443L26.9563 23.5235L12.3845 37.752C12.9266 38.3084 13.8107 38.3755 14.816 37.8191L31.8939 28.3443Z" fill="url(#paint2_linear_2270_600)"/>
<path d="M31.8939 18.7033L14.816 9.22863C13.8107 8.67792 12.9266 8.74497 12.3845 9.30139L26.9563 23.5242L31.8939 18.7033Z" fill="url(#paint3_linear_2270_600)"/>
<defs>
<linearGradient id="paint0_linear_2270_600" x1="25.6674" y1="36.4099" x2="6.51811" y2="16.7966" gradientUnits="userSpaceOnUse">
<stop stop-color="#00A0FF"/>
<stop offset="0.0066" stop-color="#00A1FF"/>
<stop offset="0.2601" stop-color="#00BEFF"/>
<stop offset="0.5122" stop-color="#00D2FF"/>
<stop offset="0.7604" stop-color="#00DFFF"/>
<stop offset="1" stop-color="#00E3FF"/>
</linearGradient>
<linearGradient id="paint1_linear_2270_600" x1="39.7358" y1="23.5217" x2="11.4492" y2="23.5217" gradientUnits="userSpaceOnUse">
<stop stop-color="#FFE000"/>
<stop offset="0.4087" stop-color="#FFBD00"/>
<stop offset="0.7754" stop-color="#FFA500"/>
<stop offset="1" stop-color="#FF9C00"/>
</linearGradient>
<linearGradient id="paint2_linear_2270_600" x1="29.209" y1="20.9028" x2="3.24098" y2="-5.6944" gradientUnits="userSpaceOnUse">
<stop stop-color="#FF3A44"/>
<stop offset="1" stop-color="#C31162"/>
</linearGradient>
<linearGradient id="paint3_linear_2270_600" x1="8.71645" y1="46.1503" x2="20.3123" y2="34.2735" gradientUnits="userSpaceOnUse">
<stop stop-color="#32A071"/>
<stop offset="0.0685" stop-color="#2DA771"/>
<stop offset="0.4762" stop-color="#15CF74"/>
<stop offset="0.8009" stop-color="#06E775"/>
<stop offset="1" stop-color="#00F076"/>
</linearGradient>
</defs>
</svg>
